<?xml version="1.0" encoding="iso-8859-1"?>
<!-- Uploaded to: SVG Repo, www.svgrepo.com, Generator: SVG Repo Mixer Tools -->
<svg version="1.1" id="Layer_1" xmlns="http://www.w3.org/2000/svg" xmlns:xlink="http://www.w3.org/1999/xlink" 
	 viewBox="0 0 512.001 512.001" xml:space="preserve">
<g>
	<polygon style="fill:#836948;" points="307.914,503.348 322.67,503.348 325.208,485.545 307.914,485.545 	"/>
	<polygon style="fill:#836948;" points="154.024,503.348 172.923,503.348 166.91,485.545 145.123,485.545 	"/>
	<path style="fill:#836948;" d="M225.558,256c-13.719,2.053-26.244,9.09-34.96,19.881c-9.325,11.547-19.285,27.58-19.656,43.711
		c-0.703,30.567,29.162,29.162-12.297,94.512l44.621,89.243h18.9l-30.143-89.243l33.027-58.675L225.558,256z"/>
</g>
<g>
	<path style="fill:#DACBBB;" d="M319.45,127.473c0,0-88.688-22.479-88.688-120.416h30.394
		C261.156,7.056,262.883,105.522,319.45,127.473z"/>
	<path style="fill:#DACBBB;" d="M334.28,125.109c0,0-52.734-41.936-24.865-105.718l19.794,8.649
		C329.21,28.041,303.688,94.716,334.28,125.109z"/>
</g>
<g>
	<path style="fill:#836948;" d="M382.041,159.565c-3.387-21.123-21.689-37.264-43.767-37.264c-24.485,0-44.335,19.849-44.335,44.335
		v19.827h55.443h33.225h18.659v-30.804L382.041,159.565z"/>
	<path style="fill:#836948;" d="M322.731,125.109L256,136.529c0,0,12.547,17.853,39.668,17.853L322.731,125.109z"/>
</g>
<g>
	<path style="fill:#AA8B65;" d="M293.94,186.462v51.928L176.25,256c-13.719,2.053-26.244,9.09-34.96,19.881
		c-9.325,11.547-19.285,27.58-19.656,43.711c-0.703,30.567,29.162,29.162-12.297,94.512l44.621,89.243h18.9l-30.143-89.243
		l33.027-58.675c2.108-0.352,132.107-12.635,132.107-12.635v160.551h14.756l22.487-157.755
		c52.351-33.729,61.486-101.188,35.487-123.038s-31.193-36.092-31.193-36.092L293.94,186.462z"/>
	<path style="fill:#AA8B65;" d="M172.537,260.168c0,0,11.476-20.756-8.953-43.052s-7.113-40.645-7.113-40.645
		s-70.172,74.957-7.437,94.691L172.537,260.168z"/>
</g>
<path style="fill:#836948;" d="M293.94,224.446c0-9.734,0-41.088,0-41.088l55.443,3.104
	C349.385,186.462,293.94,241.248,293.94,224.446z"/>
<path style="fill:#DACBBB;" d="M164.258,217.886c-0.227-0.257-0.437-0.512-0.672-0.769c-20.43-22.296-7.113-40.645-7.113-40.645
	s-18.001,19.237-27.617,40.784c5.509,3.787,11.931,6.561,18.936,6.561C154.399,223.817,159.85,221.344,164.258,217.886z"/>
<g style="opacity:0.26;">
	<path style="fill:#836948;" d="M289.793,344.499c10.934-1.035,18.055-1.708,18.055-1.708v160.241h14.756l22.487-157.755
		c50.482-32.525,60.602-96.285,37.959-120.398C355.906,244.109,383.955,277.667,289.793,344.499z"/>
</g>
<path style="fill:none;stroke:#000000;stroke-width:15;stroke-linecap:round;stroke-linejoin:round;stroke-miterlimit:10;" d="
	M179.166,357.164c-0.703,30.567,0,22.51-20.523,56.942l44.621,89.243h18.9l-30.143-89.243l33.027-58.675"/>
<path d="M406.936,150.376c-1.825-1.492-4.225-2.084-6.534-1.616l-11.821,2.401c-6.879-21.226-26.608-35.917-49.609-35.917
	c-0.642,0-1.278,0.025-1.914,0.048c-23.077-27.219-0.151-82.834,0.088-83.404c1.669-3.961-0.154-8.527-4.092-10.248l-19.794-8.649
	c-3.973-1.737-8.605,0.077-10.341,4.053c-15.646,35.808-7.806,64.452,1.527,82.176c3.833,7.278,8.204,13.319,12.178,18.039
	C271.46,92.996,269.72,8.633,269.708,7.752C269.652,3.455,266.153,0,261.855,0h-30.394c-4.338,0-7.854,3.517-7.854,7.854
	c0,53.713,25.594,85.438,47.065,102.595c6.773,5.412,13.533,9.728,19.738,13.14l-35.035,5.996c-2.655,0.454-4.892,2.237-5.926,4.724
	c-1.035,2.487-0.724,5.33,0.825,7.534c0.542,0.773,12.287,17.055,36.761,20.53c-0.161,1.666-0.249,3.352-0.249,5.06v19.827v45.161
	l-108.103,16.175c1.183-9.904-0.539-24.162-13.953-38.801c-15.156-16.54-7.613-29.131-6.52-30.762
	c2.524-3.319,1.949-7.949-1.234-10.652c-3.194-2.713-8.021-2.353-10.884,0.707c-0.432,0.461-10.684,11.468-20.073,26.36
	c-13.282,21.065-18.099,39.046-14.317,53.443c2.888,10.999,10.5,19.313,22.635,24.812c-12.836,16.436-19.526,32.074-19.858,46.506
	c-0.254,11.05,2.883,18.552,5.651,25.172c5.266,12.597,9.815,23.476-16.727,65.315c-1.476,2.326-1.625,5.256-0.393,7.72
	l44.621,89.242c1.331,2.661,4.05,4.342,7.025,4.342h18.899c2.53,0,4.905-1.219,6.381-3.275c1.476-2.056,1.87-4.696,1.061-7.093
	l-29.022-85.926l29.32-52.089c16.786-1.668,83.952-8.039,119.399-11.391v151.919c0,4.338,3.517,7.854,7.854,7.854h14.756
	c3.909,0,7.224-2.876,7.775-6.746l21.99-154.274c34.26-23.546,48.285-59.102,49.928-85.024c1.323-20.882-4.752-38.602-16.667-48.615
	c-10.73-9.018-17.671-16.614-22.054-22.226h37.692c4.338,0,7.854-3.517,7.854-7.854v-30.804
	C409.82,154.1,408.761,151.867,406.936,150.376z M314.439,30.651l5.505,2.405c-2.956,8.591-7.379,23.746-8.55,40.286
	C308.714,61.289,308.771,46.962,314.439,30.651z M239.515,15.708h14.836c0.991,14.871,4.768,48.099,19.126,76.414
	C252.534,72.488,241.137,46.848,239.515,15.708z M274.77,142.202l20.691-3.541c-1.746,2.631-3.263,5.425-4.516,8.359
	C284.345,146.318,278.962,144.416,274.77,142.202z M126.897,244.913c-3.342-12.698,5.1-30.195,14.508-44.369
	c1.882,6.32,5.522,13.075,11.741,19.863c13.371,14.592,10.197,27.901,8.519,32.411c-5.509,2.176-10.668,5.101-15.332,8.699
	C135.264,257.952,128.898,252.519,126.897,244.913z M376.221,229.364c7.938,6.672,12.086,19.979,11.096,35.597
	c-1.447,22.846-14.235,54.5-45.784,74.827c-1.915,1.234-3.2,3.239-3.522,5.495l-21.524,151.009H316.4V343.594
	c0-2.212-0.932-4.321-2.568-5.809c-1.637-1.489-3.826-2.216-6.025-2.011c-39.17,3.701-130.508,12.349-132.659,12.707
	c-2.345,0.391-4.387,1.823-5.553,3.895l-33.027,58.675c-1.092,1.942-1.309,4.255-0.597,6.366l26.641,78.875h-3.103l-40.479-80.958
	c12.2-19.769,18.714-34.891,20.431-47.359c1.769-12.846-1.743-21.244-4.839-28.652c-2.477-5.924-4.616-11.041-4.439-18.751
	c0.328-14.271,9.923-29.062,17.915-38.957c7.439-9.211,18.098-15.266,30.012-17.049l117.69-17.61
	c3.846-0.576,6.692-3.879,6.692-7.767v-44.074h42.75C348.985,201.619,357.612,213.725,376.221,229.364z M394.112,179.405h-44.03
	h-47.589v-11.973c0-20.115,16.365-36.48,36.479-36.48c18.019,0,33.164,12.892,36.012,30.653c0.338,2.113,1.525,3.995,3.283,5.214
	c1.758,1.218,3.939,1.665,6.035,1.24l9.809-1.993L394.112,179.405L394.112,179.405z"/>
</svg>