<?xml version="1.0" encoding="iso-8859-1"?>
<!-- Uploaded to: SVG Repo, www.svgrepo.com, Generator: SVG Repo Mixer Tools -->
<svg height="800px" width="800px" version="1.1" id="Layer_1" xmlns="http://www.w3.org/2000/svg" xmlns:xlink="http://www.w3.org/1999/xlink" 
	 viewBox="0 0 512 512" xml:space="preserve">
<g>
	<path style="fill:#FF9811;" d="M439.666,191.037c-34.512,0-95.708,27.978-95.708,62.488s61.197,62.488,95.708,62.488
		s62.488-27.978,62.488-62.488S474.177,191.037,439.666,191.037z"/>
	<path style="fill:#FF9811;" d="M318.428,70.093c0,34.512-27.978,95.709-62.488,95.709s-62.488-61.197-62.488-95.709
		S221.428,7.604,255.94,7.604S318.428,35.581,318.428,70.093z"/>
	<path style="fill:#FF9811;" d="M318.428,441.908c0-34.512-27.978-95.708-62.488-95.708s-62.488,61.197-62.488,95.708
		s27.976,62.488,62.488,62.488S318.428,476.42,318.428,441.908z"/>
	<path style="fill:#FF9811;" d="M72.335,191.037c34.512,0,95.709,27.978,95.709,62.488s-61.197,62.488-95.709,62.488
		S9.847,288.037,9.847,253.526S37.824,191.037,72.335,191.037z"/>
</g>
<g>
	<path style="fill:#EE8700;" d="M398.759,93.732c-33.121,9.7-83.987,53.749-74.288,86.87c9.7,33.121,76.293,42.77,109.414,33.07
		s52.106-44.412,42.407-77.533C466.593,103.018,431.88,84.033,398.759,93.732z"/>
	<path style="fill:#EE8700;" d="M214.484,73.514c10.174,32.978,1.48,99.703-31.498,109.876s-77.752-40.057-87.926-73.035
		s8.313-67.959,41.291-78.133S204.311,40.536,214.484,73.514z"/>
	<path style="fill:#EE8700;" d="M113.119,403.598c33.121-9.7,83.987-53.749,74.288-86.87s-76.293-42.77-109.414-33.07
		c-33.121,9.7-52.106,44.412-42.407,77.533S79.998,413.298,113.119,403.598z"/>
	<path style="fill:#EE8700;" d="M297.394,423.815c-10.174-32.978-1.48-99.703,31.498-109.876
		c32.978-10.174,77.752,40.057,87.926,73.035s-8.313,67.959-41.291,78.133C342.549,475.28,307.568,456.793,297.394,423.815z"/>
</g>
<g>
	<path style="fill:#CC7400;" d="M297.394,73.514c-10.174,32.978-1.48,99.703,31.498,109.876s77.752-40.057,87.926-73.035
		s-8.313-67.959-41.291-78.133S307.568,40.536,297.394,73.514z"/>
	<path style="fill:#CC7400;" d="M113.119,93.732c33.121,9.7,83.987,53.749,74.288,86.87s-76.293,42.77-109.414,33.07
		s-52.106-44.412-42.407-77.533S79.998,84.033,113.119,93.732z"/>
	<path style="fill:#CC7400;" d="M214.484,423.815c10.174-32.978,1.48-99.703-31.498-109.876
		c-32.978-10.174-77.752,40.057-87.926,73.035s8.313,67.959,41.291,78.133C169.33,475.28,204.311,456.793,214.484,423.815z"/>
	<path style="fill:#CC7400;" d="M398.759,403.598c-33.121-9.7-83.987-53.749-74.288-86.87c9.7-33.121,76.293-42.77,109.414-33.07
		c33.121,9.7,52.106,44.412,42.407,77.533C466.593,394.311,431.88,413.298,398.759,403.598z"/>
</g>
<g>
	<path style="fill:#FFA733;" d="M367.201,230.018c-24.404,24.404-87.459,47.893-111.862,23.49s-0.913-87.459,23.49-111.862
		s63.969-24.404,88.372,0C391.603,166.049,391.603,205.615,367.201,230.018z"/>
	<path style="fill:#FFA733;" d="M231.848,365.37c24.404-24.404,47.893-87.459,23.49-111.862s-87.459-0.913-111.862,23.49
		s-24.404,63.969,0,88.372S207.446,389.774,231.848,365.37z"/>
	<path style="fill:#FFA733;" d="M231.848,141.646c24.404,24.404,47.893,87.459,23.49,111.862s-87.459,0.913-111.862-23.49
		s-24.404-63.969,0-88.372S207.446,117.243,231.848,141.646z"/>
	<path style="fill:#FFA733;" d="M367.201,276.998c-24.404-24.404-87.459-47.893-111.862-23.49s-0.913,87.459,23.49,111.862
		s63.969,24.404,88.372,0C391.603,340.967,391.603,301.401,367.201,276.998z"/>
</g>
<g>
	<path style="fill:#FFC477;" d="M318.428,157.818c0,34.512-27.978,95.709-62.488,95.709s-62.488-61.197-62.488-95.709
		s27.976-62.489,62.488-62.489S318.428,123.306,318.428,157.818z"/>
	<path style="fill:#FFC477;" d="M318.428,349.234c0-34.512-27.978-95.709-62.488-95.709s-62.488,61.197-62.488,95.709
		s27.978,62.488,62.488,62.488S318.428,383.746,318.428,349.234z"/>
</g>
<g>
	<path style="fill:#FFB655;" d="M160.231,191.037c34.512,0,95.709,27.978,95.709,62.488s-61.197,62.488-95.709,62.488
		s-62.488-27.978-62.488-62.488S125.719,191.037,160.231,191.037z"/>
	<path style="fill:#FFB655;" d="M351.647,191.037c-34.512,0-95.709,27.978-95.709,62.488s61.197,62.488,95.709,62.488
		s62.488-27.978,62.488-62.488S386.159,191.037,351.647,191.037z"/>
</g>
<circle style="fill:#FFA733;" cx="256.001" cy="256" r="22.063"/>
<path d="M509.758,253.526c0-25.338-13.589-48.415-35.211-60.81c1.159-1.737,17.43-28.373,9.043-58.712
	c-7.309-26.438-30.059-45.56-56.777-49.607c-0.943-8.703-3.522-17.238-7.736-25.211c-8.748-16.552-23.404-28.755-41.308-34.228
	c-34.07-10.413-58.766,8.084-61.257,9.847C304.055,13.432,281.066,0,255.939,0c-25.122,0-48.115,13.433-60.572,34.804
	c-2.491-1.763-26.558-20.512-61.256-9.847c-4.014,1.234-6.263,5.495-5.025,9.508c1.238,4.013,5.494,6.26,9.507,5.025
	c14.01-4.322,28.862-2.931,41.824,3.921c12.961,6.85,22.479,18.337,26.801,32.345c2.364,7.661,3.646,17.661,3.671,28.419
	c-4.377,3.681-8.292,7.888-11.661,12.52c-10.819-1.818-21.683-1.078-31.851,1.996c-15.813-15.167-35.471-27.379-52.122-32.255
	c-4.87-1.426-9.811-2.296-14.754-2.656c1.899-12.504,8.105-24.162,17.595-32.695c3.123-2.808,3.378-7.616,0.571-10.739
	s-7.615-3.378-10.739-0.571C95.098,51.312,86.97,67.329,85.099,84.366c-8.02,1.215-43.784,9.006-56.811,49.636
	c-6.513,20.315-2.242,41.912,9.064,58.775c-21.567,12.408-35.11,35.429-35.11,60.749c0,23.585,11.683,45.205,30.949,58.151
	c-8.226,16.03-9.988,34.292-4.903,51.651c7.656,26.143,30.113,45.542,56.778,49.612c0.944,8.701,3.522,17.235,7.735,25.205
	c8.748,16.552,23.705,27.853,41.309,34.228c21.273,7.703,55.134-5.952,55.979-6.444C200.022,493.159,226.198,512,255.94,512
	c29.634,0,55.9-18.873,65.848-46.073c8.562,5.362,23.97,9.593,35.232,9.593c6.944,0,13.925-1.043,20.75-3.148
	c4.013-1.239,6.263-5.495,5.025-9.508c-1.238-4.012-5.489-6.258-9.508-5.025c-14.008,4.322-28.864,2.931-41.824-3.92
	c-12.961-6.85-22.48-18.337-26.801-32.345c-1.641-5.317-2.776-11.872-3.313-19.009c4.19-3.573,7.956-7.625,11.209-12.078
	c3.492,0.525,6.99,0.793,10.468,0.793c9.943,0,19.712-2.131,28.694-6.164c28.986,26.607,54.714,28.092,59.658,28.452
	c-1.971,13.06-8.603,25.09-18.804,33.733c-3.205,2.715-3.883,7.774-0.887,10.717c4.565,4.484,9.288,2.097,10.717,0.887
	c13.768-11.663,22.443-28.161,24.378-45.938c8.02-1.215,15.849-3.836,23.177-7.844c16.426-8.984,28.37-23.827,33.632-41.794
	c5.077-17.338,3.328-35.574-4.871-51.59C498.039,298.799,509.758,277.148,509.758,253.526z M494.55,253.526
	c0,18.436-9.118,35.338-24.158,45.485c-8.849-10.768-20.7-18.646-34.369-22.649c-5.033-1.474-10.821-2.544-17.061-3.187
	c1.806-6.255,2.778-12.849,2.778-19.649c0-10.363-2.278-20.197-6.332-29.056c7.599-0.566,14.614-1.743,20.615-3.5
	c10.851-3.177,20.551-8.806,28.52-16.375C482.882,213.92,494.55,232.751,494.55,253.526z M331.462,43.411
	c12.96-6.852,27.812-8.244,41.824-3.921c14.009,4.321,25.496,13.839,32.345,26.801c6.85,12.962,8.242,27.815,3.92,41.824
	c-1.238,4.013,1.023,8.234,5.025,9.508c5.036,1.603,8.5-1.758,9.508-5.025c1.301-4.217,2.182-8.494,2.676-12.786
	c19.93,3.867,36.414,18.584,42.236,38.465c4.119,14.068,2.514,28.9-4.52,41.762c-7.034,12.862-18.657,22.215-32.726,26.335
	c-6.991,2.047-15.806,3.175-25.502,3.269c-4.026-4.998-8.722-9.43-13.952-13.166c1.64-10.611,0.832-21.246-2.223-31.206
	c8-7.952,15.377-17.116,21.507-26.742c2.256-3.542,1.213-8.243-2.33-10.498c-3.542-2.255-8.242-1.212-10.498,2.33
	c-4.473,7.025-9.686,13.759-15.324,19.871c-2.972-5.017-6.597-9.712-10.849-13.964c-15.817-15.816-38.042-23.057-60.044-19.737
	c-3.342-4.568-7.221-8.719-11.546-12.357c0.026-10.744,1.318-20.785,3.673-28.418C308.982,61.747,318.501,50.26,331.462,43.411z
	 M302.96,312.245c5.009,13.226,7.865,26.595,7.865,36.989c0,30.264-24.622,54.885-54.885,54.885s-54.884-24.622-54.884-54.885
	c0-10.44,2.866-23.834,7.904-37.101c28.539-12.694,42.317-28.986,42.511-29.285c1.477,0.227,2.991,0.346,4.531,0.346
	c1.472,0,2.918-0.112,4.333-0.319C270.922,295.42,286.749,305.343,302.96,312.245z M105.346,253.526
	c0-30.264,24.622-54.885,54.884-54.885c23.29,0,58.638,13.523,76.773,32.12c-6.515,5.446-10.669,13.628-10.669,22.765
	c0,9.128,4.147,17.303,10.651,22.749c-18.652,19.064-54.604,32.136-76.754,32.136C129.967,308.411,105.346,283.789,105.346,253.526z
	 M256.001,267.985c-7.973,0-14.459-6.486-14.459-14.46s6.486-14.46,14.459-14.46c7.973,0,14.46,6.486,14.46,14.46
	S263.974,267.985,256.001,267.985z M260.333,224.178c-1.415-0.208-2.861-0.319-4.332-0.319c-1.525,0-3.022,0.117-4.485,0.339
	c-10.094-11.867-25.798-22.063-42.558-29.289c-5.034-13.26-7.903-26.667-7.903-37.09c0-30.264,24.622-54.885,54.884-54.885
	s54.885,24.622,54.885,54.885c0,10.386-2.843,23.719-7.839,36.928C286.277,201.898,270.549,212.071,260.333,224.178z
	 M320.696,131.019c15.242-0.647,30.155,5.031,41.127,16.004c11.133,11.132,16.791,26.137,16.007,41.502
	c-8.096-3.273-16.928-5.093-26.182-5.093c-9.086,0-19.655,1.715-30.492,4.834c3.147-10.907,4.876-21.523,4.876-30.449
	C326.032,148.33,324.128,139.28,320.696,131.019z M221.75,71.273c-3.028-9.818-8.067-18.657-14.723-26.089
	c9.332-18.307,28.195-29.977,48.912-29.977c20.721,0,39.581,11.669,48.913,29.977c-6.656,7.432-11.695,16.27-14.723,26.089
	c-2.079,6.739-3.422,14.663-4.008,23.292c-9.146-4.382-19.382-6.842-30.182-6.842c-10.794,0-21.022,2.457-30.164,6.833
	C225.192,85.937,223.837,78.034,221.75,71.273z M191.162,131.072c-3.418,8.247-5.315,17.278-5.315,26.747
	c0,8.943,1.739,19.591,4.899,30.525c-10.819-3.153-21.391-4.911-30.515-4.911c-9.707,0-18.958,1.986-27.372,5.569
	c-0.93-15.53,4.739-30.724,15.995-41.979C160.18,135.695,175.517,130.044,191.162,131.072z M17.451,253.526
	c0-20.763,11.627-39.555,29.924-48.892c3.659,3.459,7.728,6.568,12.19,9.233c1.222,0.73,6.167,3.39,10.428-2.629
	c2.426-3.428,0.976-8.273-2.629-10.427c-21.445-12.81-31.513-38.525-24.481-62.535c4.12-14.069,13.473-25.692,26.335-32.726
	c12.864-7.034,27.694-8.639,41.763-4.52c12.666,3.71,28.063,12.916,41.157,24.344c-5.044,2.98-9.764,6.622-14.038,10.896
	c-16.154,16.154-23.306,38.656-19.601,60.98c-4.794,3.564-9.11,7.731-12.855,12.378c-5.972-0.047-11.637-0.488-16.817-1.326
	c-4.146-0.668-8.049,2.147-8.72,6.293c-0.671,4.146,2.147,8.05,6.293,8.721c3.221,0.521,6.585,0.908,10.065,1.167
	c-4.05,8.856-6.326,18.687-6.326,29.045c0,6.82,0.998,13.407,2.823,19.646c-6.257,0.643-12.064,1.712-17.105,3.19
	c-13.647,3.996-25.482,11.854-34.325,22.595C26.536,288.803,17.451,271.929,17.451,253.526z M42.884,359.054
	c-4.12-14.069-2.515-28.901,4.52-41.763c7.035-12.862,18.657-22.214,32.727-26.335c5.371-1.573,11.904-2.607,19.06-3.041
	c4.85,8.575,11.442,16.04,19.311,21.889c-1.394,8.487-1.216,17.019,0.431,25.216c-14.463,15.212-26.313,34.076-31.137,49.712
	c-1.302,4.218-2.182,8.496-2.677,12.789C65.222,393.628,48.665,378.795,42.884,359.054z M138.593,457.84
	c-14.009-4.321-25.496-13.839-32.345-26.801c-6.85-12.961-8.242-27.815-3.921-41.824c3.57-11.572,11.773-25.38,22.16-37.638
	c3.376,7.007,7.942,13.499,13.613,19.169c1.484,1.485,7.052,3.888,10.753,0.001c2.897-3.042,2.97-7.784,0-10.753
	c-11.174-11.175-16.859-26.413-15.968-41.932c8.407,3.576,17.649,5.557,27.347,5.557c8.899,0,19.53-1.757,30.526-4.957
	c-3.169,10.949-4.91,21.605-4.91,30.572c0,9.458,1.894,18.481,5.305,26.72c-7.783,0.496-15.594-0.656-22.925-3.425
	c-3.929-1.484-8.316,0.498-9.801,4.426c-1.484,3.929,0.498,8.316,4.427,9.8c7.957,3.006,16.354,4.526,24.793,4.526
	c3.854,0,7.715-0.337,11.549-0.973c3.285,4.526,7.096,8.643,11.345,12.266c-0.537,7.146-1.673,13.664-3.319,19.003
	c-4.322,14.009-13.84,25.496-26.801,32.345C167.455,460.771,152.602,462.162,138.593,457.84z M290.128,426.057
	c3.615,11.721,10.096,22.045,18.779,30.241c-6.413,23.644-28.185,40.493-52.968,40.493c-24.871,0-46.559-16.818-52.967-40.494
	c8.684-8.196,15.162-18.52,18.779-30.241c1.296-4.199,2.314-8.954,3.044-14.056c9.389,4.679,19.962,7.325,31.146,7.325
	c11.177,0,21.743-2.643,31.129-7.316C287.793,417.102,288.816,421.803,290.128,426.057z M320.71,375.997
	c3.422-8.252,5.322-17.288,5.322-26.763c0-8.935-1.738-19.578-4.894-30.505c6.114,1.768,12.01,3.063,17.411,3.859
	c0.376,0.056,7.685,0.678,8.632-6.414c0.556-4.162-2.26-8.019-6.414-8.632c-21.191-3.124-49.686-14.694-65.83-31.198
	c6.552-5.446,10.731-13.653,10.731-22.818c0-9.158-4.174-17.359-10.717-22.806c18.196-18.526,53.742-32.08,76.697-32.08
	c30.264,0,54.884,24.622,54.884,54.885c0,25.637-17.406,47.614-42.327,53.444c-4.089,0.956-6.5,5.019-5.673,9.136
	c1.388,6.907,8.554,5.808,9.136,5.673c3.507-0.82,6.89-1.905,10.148-3.205c0.73,15.343-4.966,30.395-15.992,41.42
	C350.87,370.946,335.948,376.635,320.71,375.997z M468.996,359.054c-4.12,14.069-13.473,25.692-26.336,32.726
	c-12.862,7.034-27.692,8.639-41.763,4.52c-10.612-3.107-23.549-10.315-35.275-19.48c2.428-1.861,4.76-3.876,6.957-6.072
	c15.795-15.796,23.054-38.05,19.738-60.044c8.466-5.996,15.452-13.788,20.49-22.779c7.109,0.438,13.597,1.466,18.943,3.031
	c14.069,4.12,25.692,13.473,32.726,26.335C471.51,330.153,473.115,344.985,468.996,359.054z"/>
</svg>