<?xml version="1.0" encoding="iso-8859-1"?>
<!-- Uploaded to: SVG Repo, www.svgrepo.com, Generator: SVG Repo Mixer Tools -->
<svg height="800px" width="800px" version="1.1" id="Layer_1" xmlns="http://www.w3.org/2000/svg" xmlns:xlink="http://www.w3.org/1999/xlink" 
	 viewBox="0 0 511.991 511.991" xml:space="preserve">
<path style="fill:#A0BF7C;" d="M244.335,425.464c4.369-36.745,13.696-63.232,27.716-78.729c9.455-10.445,20.89-15.514,34.953-15.514
	c1.143,0,2.304,0.043,3.49,0.102l19.14,0.998l-8.252,17.289c-3.106,6.519-5.333,13.261-7.287,19.209
	c-4.002,12.143-7.757,23.552-15.915,31.718c-10.82,10.829-21.325,22.443-31.232,34.543l-27.793,33.954L244.335,425.464z"/>
<path style="fill:#788F5D;" d="M195.379,461.457c-15.684-12.706-32.7-24.713-50.551-35.686
	c-9.395-5.769-13.466-13.346-18.176-22.144l-11.511-20.881l23.253-0.324c25.481,0,45.141,7.893,58.436,23.441
	c9.114,10.667,15.565,25.182,19.166,43.127l6.972,34.799L195.379,461.457z"/>
<path style="fill:#FF877F;" d="M220.672,134.801c-7.313-8.593-15.855-28.937-15.855-58.001c0-29.056,8.533-49.399,15.846-58.001
	l9.745-11.46l9.754,11.452c7.313,8.593,15.855,28.945,15.855,58.01c0,29.082-8.542,49.417-15.855,58.001l-9.745,11.435
	L220.672,134.801z"/>
<path style="fill:#A9D0D3;" d="M137.847,239.206c-4.164-9.028-10.607-18.577-18.628-27.605l-3.959-4.454l0.862-5.897
	c1.783-12.194,6.434-22.801,12.757-29.116c2.193-2.185,5.666-4.924,9.839-5.615l1.809-0.299l1.826,0.213
	c11.622,1.399,24.064,20.147,24.064,45.815c0,9.566-1.741,18.517-5.163,26.607l-11.29,26.633L137.847,239.206z"/>
<path style="fill:#FFB7B2;" d="M194.807,134.067c-8.149-3.294-15.71-8.388-22.477-15.155
	c-18.176-18.176-22.613-40.243-15.351-49.442l0.99-1.246l1.254-0.964c3.499-2.688,8.073-3.26,11.298-3.26
	c8.934,0,19.729,4.215,29.611,11.571l4.779,3.558l0.358,5.948c0.717,12.075,2.91,23.373,6.349,32.683l10.018,27.136L194.807,134.067
	z"/>
<path style="fill:#FEE5B4;" d="M427.716,268.8c-9.566,0-18.517-1.741-26.615-5.171l-26.641-11.307l26.291-12.1
	c9.02-4.156,18.569-10.59,27.605-18.62l4.454-3.968l5.897,0.87c12.203,1.792,22.81,6.451,29.124,12.766
	c3.405,3.396,5.333,6.972,5.717,10.607l0.145,1.399l-0.162,1.399C472.183,256.324,453.453,268.8,427.716,268.8z"/>
<path style="fill:#6FB0B6;" d="M129.681,271.454c-11.247-0.905-31.667-9.259-52.215-29.807
	c-20.548-20.54-28.894-40.969-29.807-52.215l-1.212-14.993l14.993,1.212c11.247,0.905,31.667,9.25,52.215,29.798
	s28.902,40.977,29.807,52.224l1.212,14.993L129.681,271.454z"/>
<path style="fill:#FEDEA1;" d="M368.512,232.064c0.905-11.247,9.25-31.676,29.807-52.224c20.557-20.548,40.969-28.894,52.215-29.798
	l14.993-1.212l-1.212,14.993c-0.905,11.247-9.25,31.676-29.807,52.215c-20.548,20.548-40.969,28.902-52.215,29.807l-14.993,1.212
	L368.512,232.064z"/>
<path style="fill:#A9D0D3;" d="M84.258,294.4c-25.711,0-44.442-12.467-45.807-24.107l-0.171-1.408l0.154-1.417
	c0.375-3.618,2.304-7.194,5.726-10.607c6.298-6.306,16.905-10.965,29.107-12.757l5.897-0.87l4.454,3.968
	c9.037,8.021,18.586,14.455,27.605,18.62l26.283,12.1l-26.633,11.307C102.793,292.659,93.833,294.4,84.258,294.4z"/>
<path style="fill:#FEE5B4;" d="M350.737,213.248c-3.43-8.073-5.171-17.033-5.171-26.615c0-25.66,12.442-44.399,24.064-45.807
	l1.801-0.213l1.792,0.29c4.19,0.683,7.68,3.43,9.873,5.615c6.332,6.323,10.982,16.93,12.766,29.133l0.87,5.897l-3.959,4.454
	c-8.013,9.02-14.455,18.569-18.62,27.597l-12.109,26.249L350.737,213.248z"/>
<path style="fill:#FFB7B2;" d="M249.233,117.769c3.439-9.318,5.641-20.625,6.349-32.691l0.358-5.948l4.787-3.567
	c9.882-7.339,20.676-11.554,29.602-11.554c3.268,0,7.91,0.58,11.418,3.354l1.186,0.93l0.939,1.186
	c7.262,9.207,2.825,31.266-15.351,49.442c-6.767,6.775-14.336,11.878-22.477,15.155l-26.82,10.829L249.233,117.769z"/>
<path style="fill:#573A32;" d="M373.709,257.766c0.119,0.026,0.222,0.085,0.35,0.102c1.382,2.159,2.577,4.386,4.506,6.323
	c10.479,10.479,28.587,17.408,49.152,17.408c32.418,0,58.701-17.195,58.701-38.4c0-7.748-3.507-14.959-9.54-20.992
	c-5.111-5.111-12.186-9.156-20.352-12.109c20.079-26.274,26.761-53.897,14.199-66.458c-12.57-12.57-40.192-5.879-66.466,14.208
	c-2.944-8.175-6.989-15.258-12.092-20.369c-6.033-6.033-13.244-9.54-20.992-9.54c-21.205,0-38.4,26.283-38.4,58.701
	c0,20.574,6.921,38.673,17.408,49.152c1.579,1.579,3.379,2.586,5.154,3.678c-58.121,41.139-92.459,84.762-112.111,129.195V149.188
	c2.381,0.538,4.685,1.22,7.296,1.22c14.822,0,32.521-7.902,47.07-22.451c22.921-22.921,29.346-53.666,14.353-68.659
	c-5.496-5.478-13.082-8.098-21.615-8.098c-7.228,0-15.095,2.142-22.955,5.837C262.997,24.26,248.192,0,230.426,0
	s-32.58,24.269-36.958,57.045C185.6,53.35,177.732,51.2,170.513,51.2c-8.533,0-16.111,2.62-21.589,8.098
	c-14.993,14.993-8.567,45.739,14.353,68.659c14.549,14.549,32.247,22.451,47.07,22.451c2.603,0,4.907-0.683,7.27-1.212v204.749
	c-14.097-35.959-34.261-65.519-60.348-89.301c1.562-0.973,3.157-1.852,4.548-3.243c10.479-10.479,17.408-28.587,17.408-49.152
	c0-32.418-17.195-58.701-38.4-58.701c-7.748,0-14.959,3.507-20.992,9.54c-5.111,5.111-9.156,12.186-12.109,20.361
	c-26.274-20.079-53.897-26.761-66.458-14.199c-12.57,12.57-5.871,40.192,14.208,66.466c-8.175,2.944-15.258,6.989-20.361,12.092
	c-6.033,6.033-9.54,13.244-9.54,20.992c0,21.205,26.283,38.4,58.701,38.4c20.574,0,38.673-6.929,49.152-17.408
	c1.937-1.937,3.132-4.164,4.514-6.323c0.555-0.102,1.024-0.341,1.562-0.469c30.592,27.708,52.113,64.794,64.623,112.222
	c-14.063-15.104-34.765-25.6-65.724-25.6c-17.237,0-37.581,3.2-61.568,10.573c42.47,6.519,31.676,38.281,61.312,56.482
	c38.315,23.526,64.649,47.061,79.027,61.397c0.102,4.693,0.452,9.088,0.452,13.918h25.6c0-7.714,0.196-15.283,0.503-22.784
	c12.407-19.695,33.408-49.51,63.505-79.616c24.747-24.747,15.735-67.934,51.2-76.8c-20.036-10.018-37.018-14.37-51.413-14.37
	c-0.819,0-1.468,0.265-2.27,0.299C322.5,297.813,345.122,277.555,373.709,257.766z M458.778,240.307
	c1.604,1.604,2.022,2.688,2.048,2.893c-0.307,2.628-11.298,12.8-33.101,12.8c-8.926,0-16.077-1.809-21.615-4.156
	c10.095-4.651,20.617-11.682,30.746-20.676C447.531,232.73,455.177,236.706,458.778,240.307z M407.364,188.894
	c18.782-18.782,36.54-25.481,44.194-26.095c-0.614,7.654-7.313,25.421-26.095,44.194c-18.782,18.773-36.54,25.481-44.194,26.095
	C381.884,225.434,388.582,207.676,407.364,188.894z M371.157,153.54c0.205,0.026,1.289,0.444,2.893,2.048
	c3.601,3.601,7.578,11.247,9.139,21.922c-8.994,10.129-16.026,20.651-20.676,30.746c-2.347-5.538-4.156-12.689-4.156-21.615
	C358.357,164.838,368.538,153.847,371.157,153.54z M268.365,85.837c8.653-6.443,16.87-9.037,21.965-9.037
	c2.27,0,3.328,0.469,3.49,0.597c1.638,2.074,1.067,17.041-14.353,32.461c-6.306,6.306-12.646,10.095-18.219,12.348
	C265.096,111.77,267.563,99.362,268.365,85.837z M181.376,109.858c-15.411-15.411-15.991-30.379-14.353-32.452
	c0.162-0.128,1.22-0.606,3.49-0.606c5.094,0,13.312,2.594,21.965,9.037c0.802,13.525,3.268,25.933,7.117,36.361
	C194.022,119.945,187.682,116.164,181.376,109.858z M84.258,281.6c-21.803,0-32.794-10.18-33.101-12.8
	c0.026-0.205,0.444-1.289,2.048-2.893c3.601-3.601,11.247-7.578,21.922-9.139c10.129,8.994,20.651,16.026,30.746,20.676
	C100.335,279.791,93.184,281.6,84.258,281.6z M86.519,232.593c-18.782-18.782-25.481-36.54-26.095-44.194
	c7.654,0.614,25.421,7.313,44.194,26.095c18.782,18.782,25.481,36.54,26.095,44.194C123.059,258.074,105.293,251.375,86.519,232.593
	z M149.47,233.856c-4.651-10.095-11.682-20.617-20.676-30.754c1.562-10.675,5.538-18.313,9.139-21.922
	c1.604-1.604,2.688-2.022,2.893-2.048c2.628,0.307,12.8,11.298,12.8,33.101C153.626,221.158,151.817,228.318,149.47,233.856z
	 M151.535,414.874c-6.17-3.789-8.9-8.533-13.602-17.289c-0.41-0.759-0.828-1.545-1.263-2.338c0.58-0.009,1.152-0.009,1.715-0.009
	c21.871,0,37.803,6.204,48.7,18.953c8.576,10.027,13.577,23.518,16.35,37.325C189.338,440.09,172.041,427.46,151.535,414.874z
	 M230.426,126.507c-4.975-5.845-12.8-23.142-12.8-49.707c0-26.556,7.825-43.853,12.8-49.707c4.975,5.854,12.8,23.142,12.8,49.707
	C243.226,103.356,235.401,120.653,230.426,126.507z M307.012,344.03c0.922,0,1.86,0.026,2.816,0.085
	c-3.465,7.27-5.862,14.532-7.91,20.762c-3.644,11.068-6.793,20.617-12.791,26.624c-12.032,12.032-22.716,24.047-32.077,35.482
	c3.379-28.382,10.539-56.218,24.499-71.646C288.623,347.511,296.474,344.03,307.012,344.03z"/>
</svg>