<?xml version="1.0" encoding="utf-8" ?>
<svg baseProfile="tiny" height="50" version="1.2" width="290" xmlns="http://www.w3.org/2000/svg" xmlns:ev="http://www.w3.org/2001/xml-events" xmlns:xlink="http://www.w3.org/1999/xlink"><defs /><polygon fill="none" points="25.0,0.0 17.6527,14.8873 1.2236,17.2746 13.1118,28.8627 10.3054,45.2254 25.0,37.5 39.6946,45.2254 36.8882,28.8627 48.7764,17.2746 32.3473,14.8873" stroke="black" stroke-width="2" /><polygon fill="none" points="85.0,0.0 77.6527,14.8873 61.2236,17.2746 73.1118,28.8627 70.3054,45.2254 85.0,37.5 99.6946,45.2254 96.8882,28.8627 108.7764,17.2746 92.3473,14.8873" stroke="black" stroke-width="2" /><polygon fill="none" points="145.0,0.0 137.6527,14.8873 121.2236,17.2746 133.1118,28.8627 130.3054,45.2254 145.0,37.5 159.6946,45.2254 156.8882,28.8627 168.7764,17.2746 152.3473,14.8873" stroke="black" stroke-width="2" /><polygon fill="none" points="205.0,0.0 197.6527,14.8873 181.2236,17.2746 193.1118,28.8627 190.3054,45.2254 205.0,37.5 219.6946,45.2254 216.8882,28.8627 228.7764,17.2746 212.3473,14.8873" stroke="black" stroke-width="2" /><polygon fill="none" points="265.0,0.0 257.6527,14.8873 241.2236,17.2746 253.1118,28.8627 250.3054,45.2254 265.0,37.5 279.6946,45.2254 276.8882,28.8627 288.7764,17.2746 272.3473,14.8873" stroke="black" stroke-width="2" /></svg>